<?xml version="1.0" encoding="UTF-8"?>
<svg id="Layer_2" xmlns="http://www.w3.org/2000/svg" viewBox="0 0 117.93 117.93">
  <defs>
    <style>
      .cls-1 {
        fill: #028283;
        stroke: #028283;
        stroke-miterlimit: 10;
      }

      .cls-2 {
        fill: #fff;
      }

      .cls-3 {
        fill: #e7541e;
      }
    </style>
  </defs>
  <g id="OBJECTS">
    <g>
      <circle class="cls-1" cx="58.97" cy="58.97" r="58.47"/>
      <circle class="cls-2" cx="58.97" cy="58.97" r="51.64"/>
      <path class="cls-3" d="M92.63,25.31c-6.22-6.22-14.27-9.51-18.09-10.81-1.19-.4-2.46.28-2.78,1.49l-10.06,37.61c-.43,1.61,1.04,3.08,2.65,2.65l37.61-10.06c1.21-.32,1.9-1.6,1.49-2.78-1.3-3.82-4.59-11.87-10.81-18.09Z"/>
      <path class="cls-3" d="M46.65,12.99c-8.5,2.28-15.37,7.6-18.41,10.26-.94.83-.99,2.27-.1,3.16l27.54,27.52c1.18,1.18,3.19.64,3.62-.97l10.09-37.6c.33-1.21-.43-2.44-1.66-2.68-3.96-.78-12.57-1.96-21.07.32Z"/>
      <path class="cls-3" d="M12.99,46.65c-2.28,8.5-1.1,17.11-.32,21.07.24,1.23,1.47,1.99,2.68,1.66l37.6-10.09c1.61-.43,2.15-2.44.97-3.62l-27.52-27.54c-.89-.89-2.33-.84-3.16.1-2.66,3.04-7.98,9.9-10.26,18.41Z"/>
      <path class="cls-3" d="M25.31,92.63c6.22,6.22,14.27,9.51,18.09,10.81,1.19.4,2.46-.28,2.78-1.49l10.06-37.61c.43-1.61-1.04-3.08-2.65-2.65l-37.61,10.06c-1.21.32-1.9,1.6-1.49,2.78,1.3,3.82,4.59,11.87,10.81,18.09Z"/>
      <path class="cls-3" d="M71.29,104.95c8.5-2.28,15.37-7.6,18.41-10.26.94-.83.99-2.27.1-3.16l-27.54-27.52c-1.18-1.18-3.19-.64-3.62.97l-10.09,37.6c-.33,1.21.43,2.44,1.66,2.68,3.96.78,12.57,1.96,21.07-.32Z"/>
      <path class="cls-3" d="M104.95,71.29c2.28-8.5,1.1-17.11.32-21.07-.24-1.23-1.47-1.99-2.68-1.66l-37.6,10.09c-1.61.43-2.15,2.44-.97,3.62l27.52,27.54c.89.89,2.33.84,3.16-.1,2.66-3.04,7.98-9.91,10.26-18.41Z"/>
    </g>
  </g>
</svg>