<?xml version="1.0" encoding="UTF-8"?>
<svg id="Layer_2" xmlns="http://www.w3.org/2000/svg" viewBox="0 0 661.45 119.2">
  <defs>
    <style>
      .cls-1 {
        stroke: #028283;
        stroke-miterlimit: 10;
      }

      .cls-1, .cls-2 {
        fill: #028283;
      }

      .cls-3 {
        fill: #fff;
      }

      .cls-4 {
        fill: #e7541e;
      }
    </style>
  </defs>
  <g id="OBJECTS">
    <g>
      <g>
        <path class="cls-2" d="M400.79,91.9c2.12,5.41,5.01,9.57,8.67,12.48,3.66,2.92,8.67,4.37,15.03,4.37,4.13,0,7.79-.64,10.97-1.91,3.18-1.27,5.8-3.02,7.87-5.25,2.07-2.23,3.63-4.82,4.69-7.79,1.06-2.97,1.59-6.15,1.59-9.54,0-4.13-.87-7.68-2.62-10.65-1.75-2.97-4.03-5.38-6.84-7.23-2.81-1.85-5.99-3.21-9.54-4.05-3.55-.85-7.13-1.27-10.73-1.27h-4.13v-9.54h4.77c2.97,0,5.96-.4,8.98-1.19,3.02-.79,5.72-2.04,8.11-3.74,2.39-1.69,4.32-3.9,5.8-6.6,1.48-2.7,2.23-5.96,2.23-9.78,0-6.04-1.88-11-5.64-14.87-3.76-3.87-8.83-5.8-15.18-5.8-4.67,0-8.85,1.19-12.56,3.58-3.71,2.38-6.63,5.59-8.75,9.62l-9.06-5.09c3.07-5.83,7.29-10.07,12.64-12.72,5.35-2.65,11.26-3.98,17.73-3.98,4.24,0,8.27.61,12.08,1.83,3.82,1.22,7.15,3.02,10.02,5.41,2.86,2.39,5.11,5.38,6.76,8.98,1.64,3.6,2.46,7.85,2.46,12.72,0,6.15-1.7,11.58-5.09,16.3-3.39,4.72-8.37,7.98-14.95,9.78v.32c3.6.64,6.86,1.83,9.78,3.58,2.91,1.75,5.43,3.9,7.55,6.44,2.12,2.54,3.76,5.41,4.93,8.59,1.17,3.18,1.75,6.57,1.75,10.18,0,4.45-.72,8.64-2.15,12.56-1.43,3.92-3.6,7.34-6.52,10.26-2.92,2.92-6.55,5.22-10.89,6.92-4.35,1.7-9.44,2.55-15.26,2.55-8.48,0-15.66-1.78-21.54-5.33-5.88-3.55-10.31-9.14-13.28-16.77l10.33-3.34Z"/>
        <path class="cls-2" d="M488.33,52.47h.32c1.91-1.59,4.48-2.78,7.71-3.58,3.23-.79,6.23-1.19,8.98-1.19,4.98,0,9.59.9,13.83,2.7,4.24,1.8,7.9,4.27,10.97,7.39,3.07,3.13,5.46,6.79,7.15,10.97,1.69,4.19,2.54,8.72,2.54,13.59s-.93,9.78-2.78,14.07c-1.86,4.29-4.43,7.98-7.71,11.05-3.29,3.08-7.18,5.49-11.69,7.23-4.51,1.75-9.41,2.62-14.71,2.62s-10.2-.88-14.71-2.62c-4.51-1.75-8.4-4.16-11.69-7.23-3.29-3.07-5.86-6.76-7.71-11.05-1.86-4.29-2.78-8.98-2.78-14.07,0-2.97.32-5.78.95-8.43.64-2.65,1.48-5.17,2.54-7.55,1.06-2.39,2.17-4.64,3.34-6.76,1.16-2.12,2.33-4.13,3.5-6.04l30.53-50.72h12.08l-30.69,49.61ZM502.95,55.97c-3.71,0-7.16.69-10.33,2.07-3.18,1.38-5.96,3.26-8.35,5.64-2.38,2.38-4.27,5.19-5.64,8.43-1.38,3.23-2.07,6.65-2.07,10.26,0,3.92.64,7.5,1.91,10.73,1.27,3.23,3.07,6.02,5.41,8.35,2.33,2.33,5.11,4.13,8.35,5.41,3.23,1.27,6.81,1.91,10.73,1.91s7.5-.64,10.73-1.91c3.23-1.27,6.01-3.07,8.35-5.41s4.13-5.11,5.41-8.35c1.27-3.23,1.91-6.81,1.91-10.73,0-3.6-.69-7.02-2.07-10.26-1.38-3.23-3.26-6.04-5.64-8.43-2.38-2.39-5.19-4.27-8.43-5.64-3.23-1.38-6.65-2.07-10.26-2.07Z"/>
        <g>
          <circle class="cls-1" cx="602.48" cy="58.97" r="58.47"/>
          <circle class="cls-3" cx="602.48" cy="58.97" r="51.64"/>
          <path class="cls-4" d="M636.14,25.31c-6.22-6.22-14.27-9.51-18.09-10.81-1.19-.4-2.46.28-2.78,1.49l-10.06,37.61c-.43,1.61,1.04,3.08,2.65,2.65l37.61-10.06c1.21-.32,1.9-1.6,1.49-2.78-1.3-3.82-4.59-11.87-10.81-18.09Z"/>
          <path class="cls-4" d="M590.16,12.99c-8.5,2.28-15.37,7.6-18.41,10.26-.94.83-.99,2.27-.1,3.16l27.54,27.52c1.18,1.18,3.19.64,3.62-.97l10.09-37.6c.32-1.21-.43-2.44-1.66-2.68-3.96-.78-12.57-1.96-21.07.32Z"/>
          <path class="cls-4" d="M556.51,46.65c-2.28,8.5-1.1,17.11-.32,21.07.24,1.23,1.47,1.99,2.68,1.66l37.6-10.09c1.61-.43,2.15-2.44.97-3.62l-27.52-27.54c-.89-.89-2.33-.84-3.16.1-2.66,3.04-7.98,9.9-10.26,18.41Z"/>
          <path class="cls-4" d="M568.83,92.63c6.22,6.22,14.27,9.51,18.09,10.81,1.19.4,2.46-.28,2.78-1.49l10.06-37.61c.43-1.61-1.04-3.08-2.65-2.65l-37.61,10.06c-1.21.32-1.9,1.6-1.49,2.78,1.3,3.82,4.59,11.87,10.81,18.09Z"/>
          <path class="cls-4" d="M614.8,104.95c8.5-2.28,15.37-7.6,18.41-10.26.94-.83.99-2.27.1-3.16l-27.54-27.52c-1.18-1.18-3.19-.64-3.62.97l-10.09,37.6c-.33,1.21.43,2.44,1.66,2.68,3.96.78,12.57,1.96,21.07-.32Z"/>
          <path class="cls-4" d="M648.46,71.29c2.28-8.5,1.1-17.11.32-21.07-.24-1.23-1.47-1.99-2.68-1.66l-37.6,10.09c-1.61.43-2.15,2.44-.97,3.62l27.52,27.54c.89.89,2.33.84,3.16-.1,2.66-3.04,7.98-9.91,10.26-18.41Z"/>
        </g>
      </g>
      <path class="cls-4" d="M0,7.6h31.62c4.13,0,8.32.34,12.55,1.01,4.24.67,8.03,2.07,11.39,4.19,3.36,2.12,6.1,5.06,8.21,8.83,2.12,3.77,3.18,8.76,3.18,14.96,0,5.58-1.65,10.44-4.96,14.57-3.31,4.13-8.21,6.87-14.73,8.21v.31c3.62.31,6.92,1.16,9.92,2.56,3,1.39,5.58,3.25,7.75,5.58,2.17,2.33,3.85,5.09,5.04,8.29,1.19,3.2,1.78,6.72,1.78,10.54,0,6.3-1.22,11.45-3.64,15.42-2.43,3.98-5.48,7.11-9.14,9.38-3.67,2.27-7.65,3.82-11.94,4.65-4.29.83-8.29,1.24-12.01,1.24H0V7.6ZM10.23,55.03h21.24c5.27,0,9.56-.64,12.87-1.94,3.31-1.29,5.89-2.87,7.75-4.73,1.86-1.86,3.1-3.85,3.72-5.97.62-2.12.93-4.05.93-5.81,0-3.82-.65-7-1.94-9.53-1.29-2.53-3.02-4.55-5.19-6.05-2.17-1.5-4.7-2.56-7.59-3.18-2.89-.62-5.94-.93-9.15-.93H10.23v38.13ZM10.23,108.04h23.41c5.99,0,10.82-.72,14.49-2.17,3.67-1.45,6.48-3.25,8.45-5.42,1.96-2.17,3.28-4.47,3.95-6.9.67-2.43,1.01-4.62,1.01-6.59,0-4.03-.78-7.49-2.33-10.39-1.55-2.89-3.57-5.24-6.04-7.05-2.48-1.81-5.3-3.12-8.45-3.95-3.15-.83-6.33-1.24-9.53-1.24H10.23v43.71Z"/>
      <path class="cls-4" d="M148.25,103.86c-3.62,5.48-8.09,9.4-13.41,11.78-5.32,2.38-11.19,3.56-17.59,3.56-5.48,0-10.44-.93-14.88-2.79-4.44-1.86-8.27-4.47-11.47-7.83-3.2-3.36-5.66-7.34-7.36-11.94-1.7-4.6-2.56-9.69-2.56-15.27s.88-10.33,2.63-14.88c1.76-4.55,4.24-8.5,7.44-11.86,3.2-3.36,6.97-5.99,11.31-7.91,4.34-1.91,9.15-2.87,14.41-2.87s10.31.96,14.49,2.87c4.18,1.91,7.7,4.44,10.54,7.6,2.84,3.15,4.98,6.74,6.43,10.77,1.45,4.03,2.17,8.11,2.17,12.24v6.51h-60.14c0,1.96.39,4.47,1.16,7.52.78,3.05,2.19,6.02,4.26,8.91,2.07,2.89,4.83,5.37,8.29,7.44,3.46,2.07,7.93,3.1,13.41,3.1,4.75,0,9.35-1.14,13.79-3.41,4.44-2.27,7.85-5.37,10.23-9.3l6.82,5.74ZM141.12,75.49c0-3.2-.65-6.2-1.94-8.99-1.29-2.79-3.05-5.24-5.27-7.36-2.22-2.12-4.86-3.8-7.91-5.04-3.05-1.24-6.28-1.86-9.69-1.86-5.06,0-9.28,1.03-12.63,3.1-3.36,2.07-6.02,4.44-7.98,7.13-1.96,2.69-3.36,5.3-4.18,7.83-.83,2.53-1.24,4.26-1.24,5.19h50.84Z"/>
      <path class="cls-4" d="M141.57,7.6h10.54l27.28,97.19h.31L207.45,7.6h13.02l27.75,97.19h.31l27.28-97.19h10.54l-31.93,109.74h-12.56l-27.74-97.65h-.31l-27.75,97.65h-12.55L141.57,7.6Z"/>
      <path class="cls-4" d="M343.96,103.86c-3.62,5.48-8.09,9.4-13.41,11.78-5.32,2.38-11.19,3.56-17.59,3.56-5.48,0-10.44-.93-14.88-2.79-4.44-1.86-8.27-4.47-11.47-7.83-3.2-3.36-5.66-7.34-7.36-11.94-1.71-4.6-2.56-9.69-2.56-15.27s.88-10.33,2.63-14.88c1.76-4.55,4.24-8.5,7.44-11.86,3.2-3.36,6.97-5.99,11.31-7.91,4.34-1.91,9.15-2.87,14.42-2.87s10.31.96,14.49,2.87c4.18,1.91,7.7,4.44,10.54,7.6,2.84,3.15,4.98,6.74,6.43,10.77,1.45,4.03,2.17,8.11,2.17,12.24v6.51h-60.14c0,1.96.39,4.47,1.16,7.52.78,3.05,2.19,6.02,4.26,8.91,2.07,2.89,4.83,5.37,8.29,7.44,3.46,2.07,7.93,3.1,13.41,3.1,4.75,0,9.35-1.14,13.79-3.41,4.44-2.27,7.85-5.37,10.23-9.3l6.82,5.74ZM336.83,75.49c0-3.2-.65-6.2-1.94-8.99-1.29-2.79-3.05-5.24-5.27-7.36-2.22-2.12-4.86-3.8-7.91-5.04-3.05-1.24-6.28-1.86-9.69-1.86-5.06,0-9.28,1.03-12.63,3.1-3.36,2.07-6.02,4.44-7.98,7.13-1.96,2.69-3.36,5.3-4.18,7.83-.83,2.53-1.24,4.26-1.24,5.19h50.84Z"/>
      <path class="cls-4" d="M355.45.16h9.3v117.18h-9.3V.16Z"/>
      <path class="cls-4" d="M373.81.16h9.3v117.18h-9.3V.16Z"/>
    </g>
  </g>
</svg>