<?xml version="1.0" encoding="UTF-8"?>
<svg id="Layer_2" xmlns="http://www.w3.org/2000/svg" viewBox="0 0 706.14 214.14">
  <defs>
    <style>
      .cls-1 {
        stroke: #028283;
        stroke-miterlimit: 10;
      }

      .cls-1, .cls-2 {
        fill: #028283;
      }

      .cls-3 {
        fill: #fff;
      }

      .cls-4 {
        fill: #e7541e;
      }
    </style>
  </defs>
  <g id="OBJECTS">
    <g>
      <g>
        <circle class="cls-1" cx="58.97" cy="112.87" r="58.47"/>
        <circle class="cls-3" cx="58.97" cy="112.88" r="51.64"/>
        <path class="cls-4" d="M92.63,79.22c-6.22-6.22-14.27-9.51-18.09-10.81-1.19-.4-2.46.28-2.78,1.49l-10.06,37.61c-.43,1.61,1.04,3.08,2.65,2.65l37.61-10.06c1.21-.32,1.9-1.6,1.49-2.78-1.3-3.82-4.59-11.87-10.81-18.09Z"/>
        <path class="cls-4" d="M46.65,66.9c-8.5,2.28-15.37,7.6-18.41,10.26-.94.83-.99,2.27-.1,3.16l27.54,27.52c1.18,1.18,3.19.64,3.62-.97l10.09-37.6c.33-1.21-.43-2.44-1.66-2.68-3.96-.78-12.57-1.96-21.07.32Z"/>
        <path class="cls-4" d="M12.99,100.56c-2.28,8.5-1.1,17.11-.32,21.07.24,1.23,1.47,1.99,2.68,1.66l37.6-10.09c1.61-.43,2.15-2.44.97-3.62l-27.52-27.54c-.89-.89-2.33-.84-3.16.1-2.66,3.04-7.98,9.9-10.26,18.41Z"/>
        <path class="cls-4" d="M25.31,146.53c6.22,6.22,14.27,9.51,18.09,10.81,1.19.4,2.46-.28,2.78-1.49l10.06-37.61c.43-1.61-1.04-3.08-2.65-2.65l-37.61,10.06c-1.21.32-1.9,1.6-1.49,2.78,1.3,3.82,4.59,11.87,10.81,18.09Z"/>
        <path class="cls-4" d="M71.29,158.85c8.5-2.28,15.37-7.6,18.41-10.26.94-.83.99-2.27.1-3.16l-27.54-27.52c-1.18-1.18-3.19-.64-3.62.97l-10.09,37.6c-.33,1.21.43,2.44,1.66,2.68,3.96.78,12.57,1.96,21.07-.32Z"/>
        <path class="cls-4" d="M104.95,125.19c2.28-8.5,1.1-17.11.32-21.07-.24-1.23-1.47-1.99-2.68-1.66l-37.6,10.09c-1.61.43-2.15,2.44-.97,3.62l27.52,27.54c.89.89,2.33.84,3.16-.1,2.66-3.04,7.98-9.91,10.26-18.41Z"/>
      </g>
      <path class="cls-2" d="M129.95,91.16c0-1.86-.07-4.12-.21-6.77-.14-2.65-.25-5.34-.32-8.06-.07-2.72-.18-5.27-.32-7.63-.14-2.37-.21-4.19-.21-5.48h12.9c.14,3.73.25,7.31.32,10.75.07,3.44.25,5.66.54,6.67,3.3-5.88,7.53-10.68,12.69-14.41,5.16-3.73,11.46-5.59,18.92-5.59,1.29,0,2.54.11,3.76.32,1.22.22,2.47.47,3.76.75l-1.5,12.68c-1.72-.57-3.37-.86-4.94-.86-5.59,0-10.43.9-14.51,2.69-4.08,1.79-7.46,4.27-10.11,7.42-2.65,3.15-4.62,6.85-5.91,11.07-1.29,4.23-1.94,8.78-1.94,13.65v54.18h-12.9v-71.38Z"/>
      <path class="cls-2" d="M266.73,120.83c0,4.87.03,9.25.11,13.12.07,3.87.18,7.45.32,10.75.14,3.3.32,6.38.54,9.25.21,2.87.54,5.73.97,8.6h-12.04c-.86-4.87-1.29-10.25-1.29-16.12h-.43c-3.73,6.45-8.35,11.18-13.87,14.19-5.52,3.01-12.51,4.51-20.96,4.51-4.3,0-8.53-.54-12.69-1.61-4.16-1.08-7.88-2.79-11.18-5.16-3.3-2.37-5.99-5.41-8.06-9.14-2.08-3.73-3.12-8.24-3.12-13.54,0-7.6,1.94-13.62,5.81-18.06,3.87-4.44,8.63-7.77,14.3-10,5.66-2.22,11.68-3.66,18.06-4.3,6.38-.65,12-.97,16.88-.97h15.05v-6.02c0-8.6-2.65-14.76-7.96-18.49-5.3-3.73-11.97-5.59-20-5.59-11.47,0-21.57,3.73-30.32,11.18l-7.52-8.81c4.73-4.59,10.61-8.06,17.63-10.43,7.02-2.37,13.76-3.55,20.21-3.55,12.04,0,21.64,2.83,28.81,8.49,7.17,5.66,10.75,14.8,10.75,27.41v24.29ZM240.93,112.66c-5.45,0-10.72.36-15.8,1.08-5.09.72-9.67,1.93-13.76,3.65-4.08,1.72-7.35,4.01-9.78,6.88-2.44,2.87-3.66,6.45-3.66,10.75,0,3.01.68,5.7,2.04,8.06,1.36,2.36,3.12,4.3,5.27,5.8,2.15,1.5,4.55,2.65,7.2,3.44,2.65.79,5.34,1.18,8.06,1.18,6.88,0,12.54-1,16.98-3.01,4.44-2.01,7.99-4.62,10.64-7.85,2.65-3.22,4.48-6.88,5.48-10.96,1-4.08,1.51-8.2,1.51-12.36v-6.67h-14.19Z"/>
      <path class="cls-2" d="M279.13,91.16c0-1.86-.07-4.12-.21-6.77-.14-2.65-.25-5.34-.32-8.06-.07-2.72-.18-5.27-.32-7.63-.14-2.37-.21-4.19-.21-5.48h12.9c.14,3.73.25,7.31.32,10.75.07,3.44.25,5.66.54,6.67h.65c2.58-5.45,6.88-10.14,12.9-14.08,6.02-3.94,13.04-5.91,21.07-5.91s14.05,1.22,18.92,3.66c4.87,2.44,8.71,5.63,11.5,9.57,2.79,3.94,4.73,8.49,5.8,13.65s1.61,10.46,1.61,15.91v59.12h-12.9v-58.48c0-4.01-.36-7.92-1.08-11.72-.72-3.8-1.97-7.2-3.76-10.21-1.79-3.01-4.3-5.41-7.53-7.2-3.22-1.79-7.42-2.69-12.58-2.69-4.73,0-9.21.83-13.44,2.47-4.23,1.65-7.88,4.16-10.96,7.52-3.08,3.37-5.52,7.6-7.31,12.69-1.79,5.09-2.69,11.07-2.69,17.95v49.67h-12.9v-71.38Z"/>
      <path class="cls-2" d="M376.82,0h12.9v162.54h-12.9V0Z"/>
      <path class="cls-2" d="M442.22,193.29c-2.44,6.45-5.81,11.54-10.11,15.26-4.3,3.73-10.03,5.59-17.2,5.59-2.15,0-4.3-.18-6.45-.54-2.15-.36-4.23-.83-6.23-1.4l1.29-12.04c1.86.57,3.76,1.11,5.7,1.61,1.93.5,3.9.75,5.91.75,2.29,0,4.33-.5,6.13-1.5,1.79-1,3.33-2.29,4.62-3.87,1.29-1.58,2.4-3.33,3.33-5.27.93-1.94,1.75-3.91,2.47-5.91l9.03-23-40.42-99.76h14.41l32.9,83.63,32.03-83.63h13.76l-51.17,130.08Z"/>
      <path class="cls-2" d="M567.4,74.82h-28.38v64.71c0,4.44,1.22,7.88,3.66,10.32,2.44,2.44,5.8,3.65,10.1,3.65,2.44,0,4.91-.32,7.42-.97,2.51-.65,4.91-1.47,7.2-2.47l1.08,11.61c-2.44.86-5.23,1.65-8.38,2.37-3.16.72-5.95,1.08-8.39,1.08-4.59,0-8.53-.68-11.83-2.04-3.3-1.36-5.95-3.19-7.95-5.48-2.01-2.29-3.48-4.98-4.41-8.06-.93-3.08-1.4-6.41-1.4-10v-64.71h-21.5v-11.61h21.5v-28.59h12.9v28.59h28.38v11.61Z"/>
      <path class="cls-2" d="M578.54,23.87c0-2.72.93-5.02,2.79-6.88s4.16-2.79,6.88-2.79,5.02.93,6.88,2.79c1.86,1.86,2.79,4.16,2.79,6.88s-.93,5.02-2.79,6.88-4.16,2.79-6.88,2.79-5.02-.93-6.88-2.79c-1.86-1.86-2.79-4.16-2.79-6.88ZM581.77,63.21h12.9v99.33h-12.9V63.21Z"/>
      <path class="cls-2" d="M646.59,108.79l-35.48-45.58h16.56l27.52,37.62,27.3-37.62h16.12l-35.04,45.58,42.57,53.75h-16.77l-34.62-44.93-33.97,44.93h-15.48l41.28-53.75Z"/>
    </g>
  </g>
</svg>