<?xml version="1.0" encoding="UTF-8"?>
<svg id="Layer_2" data-name="Layer 2" xmlns="http://www.w3.org/2000/svg" viewBox="0 0 416.51 66.03">
  <defs>
    <style>
      .cls-1 {
        fill: #1985a1;
      }
    </style>
  </defs>
  <g id="Layer_1-2" data-name="Layer 1">
    <g>
      <path class="cls-1" d="M15.77,2.02C8.21,2.02,3.1,6.05,3.1,12.1c0,5.26,2.95,7.56,9.15,9.94l7.78,3.02c6.41,2.52,10.73,6.41,10.73,12.75,0,7.92-5.98,12.89-14.98,12.89-6.98,0-12.24-2.45-15.48-5.76-.22-.29-.29-.43-.29-.72,0-.43.65-1.08,1.08-1.08.29,0,.43,0,.72.29,3.02,3.17,6.84,5.26,13.97,5.26,7.56,0,12.67-4.18,12.67-10.87,0-5.26-3.38-8.5-9-10.66l-7.78-3.02C4.97,21.53.79,18.65.79,12.1.79,4.9,6.84,0,15.7,0c5.33,0,10.01,1.58,12.46,3.67.29.29.36.5.36.79,0,.43-.5,1.08-1.08,1.08-.22,0-.43-.07-.72-.29-2.59-1.94-5.69-3.24-10.94-3.24Z"/>
      <path class="cls-1" d="M51.07,16.2c7.56,0,12.53,3.17,12.53,14.69v18.87c0,.79-.43.94-1.01.94s-1.01-.14-1.01-.94v-18.87c0-9.36-3.31-12.67-10.51-12.67-10.51,0-11.52,6.7-11.52,13.68v17.86c0,.79-.43.94-1.01.94s-1.01-.14-1.01-.94V17.21c0-.79.43-.94,1.01-.94s1.01.14,1.01.94v3.24c0,.43.14.5.36.5.14,0,.5-.58.72-.79,2.81-3.02,6.12-3.96,10.44-3.96Z"/>
      <path class="cls-1" d="M82.43,16.2c11.67,0,13.32,7.63,13.32,17.28s-1.66,17.21-13.32,17.21-13.32-7.63-13.32-17.21,1.66-17.28,13.32-17.28ZM82.43,48.68c10.08,0,11.16-6.34,11.16-15.19s-1.08-15.27-11.16-15.27-11.16,6.34-11.16,15.27,1.08,15.19,11.16,15.19Z"/>
      <path class="cls-1" d="M121.05,19.8l-8.28,29.52c-.29,1.15-1.15,1.37-1.87,1.37s-1.51-.29-1.87-1.37l-10.44-31.68c-.07-.22-.14-.43-.14-.65,0-.5.65-.79,1.22-.79.43,0,.65.36.79.86l9.94,30.03c.14.43.22,1.01.43,1.01s.22-.36.43-1.01l8.35-29.52c.29-1.15,1.15-1.37,1.87-1.37s1.58.22,1.87,1.37l8.35,29.52c.22.65.22,1.01.43,1.01s.29-.58.43-1.01l9.94-30.03c.14-.5.36-.86.79-.86.58,0,1.22.29,1.22.79,0,.22-.07.43-.14.65l-10.44,31.68c-.36,1.08-1.15,1.37-1.87,1.37s-1.58-.22-1.87-1.37l-8.28-29.52c-.14-.43-.22-1.01-.43-1.01s-.29.58-.43,1.01Z"/>
      <path class="cls-1" d="M174.25,16.99c.14-.36.36-.79.79-.79.58,0,1.15.43,1.15.94,0,.29-.14.65-.36,1.15l-16.42,41.62c-1.87,4.82-5.11,6.12-8.14,6.12-.65,0-.86-.43-.86-.94s.22-.94.86-.94c2.38,0,4.9-1.01,6.48-5.11l3.31-8.5c.14-.43.29-.72.29-1.15,0-.29-.07-.58-.22-.94l-11.45-30.1c-.22-.58-.36-.86-.36-1.15,0-.58.65-1.01,1.22-1.01.5,0,.72.43.86.86l10.44,27.79c.29.72.29,1.44.72,1.44s.5-.94.72-1.44l10.94-27.87Z"/>
      <path class="cls-1" d="M185.05,6.91c2.52-4.39,6.98-6.91,14.26-6.91s11.67,2.52,14.19,6.91c2.52,4.54,3.24,11.02,3.24,18.43s-.72,13.9-3.24,18.43c-2.52,4.39-6.91,6.91-14.19,6.91s-11.74-2.52-14.26-6.91c-2.52-4.54-3.24-11.02-3.24-18.43s.72-13.9,3.24-18.43ZM187.06,42.7c2.38,4.25,6.98,5.98,12.24,5.98s9.79-1.73,12.17-5.98c2.09-3.74,2.88-9.43,2.88-17.35s-.79-13.61-2.88-17.35c-2.38-4.25-6.98-5.98-12.17-5.98s-9.86,1.73-12.24,5.98c-2.09,3.74-2.88,9.43-2.88,17.35s.79,13.61,2.88,17.35Z"/>
      <path class="cls-1" d="M244.39,19.8l-8.28,29.52c-.29,1.15-1.15,1.37-1.87,1.37s-1.51-.29-1.87-1.37l-10.44-31.68c-.07-.22-.14-.43-.14-.65,0-.5.65-.79,1.22-.79.43,0,.65.36.79.86l9.94,30.03c.14.43.22,1.01.43,1.01s.22-.36.43-1.01l8.35-29.52c.29-1.15,1.15-1.37,1.87-1.37s1.58.22,1.87,1.37l8.35,29.52c.22.65.22,1.01.43,1.01s.29-.58.43-1.01l9.94-30.03c.14-.5.36-.86.79-.86.58,0,1.22.29,1.22.79,0,.22-.07.43-.14.65l-10.44,31.68c-.36,1.08-1.15,1.37-1.87,1.37s-1.58-.22-1.87-1.37l-8.28-29.52c-.14-.43-.22-1.01-.43-1.01s-.29.58-.43,1.01Z"/>
      <path class="cls-1" d="M273.2,44.5V.94c0-.79.43-.94,1.01-.94s1.01.14,1.01.94v43.35c0,3.46,1.22,4.39,4.39,4.39.72,0,1.01.36,1.01.94,0,1.01-.79,1.08-1.87,1.08-3.6,0-5.54-1.87-5.54-6.19Z"/>
      <path class="cls-1" d="M350.97,16.2c10.01,0,12.31,5.4,12.31,13.39v16.99c0,1.44.5,2.02,2.02,2.02.72,0,.94.36.94,1.01,0,.86-.65,1.08-1.66,1.08-2.45,0-3.31-1.58-3.31-3.46v-.72c0-.43-.14-.58-.36-.58s-.5.36-.79.65c-2.45,2.52-6.19,4.1-10.73,4.1-7.99,0-11.67-4.68-11.67-9.29,0-7.99,6.48-9.79,13.32-9.79h9.58c.58,0,.65-.29.65-.65v-1.37c0-7.2-1.58-11.38-10.44-11.38-4.54,0-6.62.72-9.29,2.59-.29.22-.5.29-.65.29-.58,0-1.15-.58-1.15-1.3,0-.22.14-.5.43-.72,3.31-2.45,7.06-2.88,10.8-2.88ZM361.27,34.13c0-.43-.14-.65-.65-.65h-9.07c-6.12,0-11.67,1.08-11.67,7.78,0,4.39,3.02,7.42,9.94,7.42,7.42,0,11.45-4.61,11.45-10.01v-4.54Z"/>
      <path class="cls-1" d="M373.38,16.49c.43,0,.65-.14.65-.65V5.54c0-.79.43-.94,1.01-.94s1.01.14,1.01.94v10.3c0,.5.22.65.65.65h6.34c.65,0,.86.43.86.94s-.22.94-.86.94h-6.34c-.43,0-.65.14-.65.65v22.25c0,5.18,1.8,7.42,6.34,7.42.72,0,1.01.36,1.01.94,0,1.01-.79,1.08-1.87,1.08-4.54,0-7.49-3.02-7.49-8.86v-22.83c0-.5-.22-.65-.65-.65h-5.62c-.65,0-.86-.43-.86-.94s.22-.94.86-.94h5.62Z"/>
      <path class="cls-1" d="M401.24,16.2c10.01,0,12.31,5.4,12.31,13.39v16.99c0,1.44.5,2.02,2.02,2.02.72,0,.94.36.94,1.01,0,.86-.65,1.08-1.66,1.08-2.45,0-3.31-1.58-3.31-3.46v-.72c0-.43-.14-.58-.36-.58s-.5.36-.79.65c-2.45,2.52-6.19,4.1-10.73,4.1-7.99,0-11.67-4.68-11.67-9.29,0-7.99,6.48-9.79,13.32-9.79h9.58c.58,0,.65-.29.65-.65v-1.37c0-7.2-1.58-11.38-10.44-11.38-4.54,0-6.62.72-9.29,2.59-.29.22-.5.29-.65.29-.58,0-1.15-.58-1.15-1.3,0-.22.14-.5.43-.72,3.31-2.45,7.06-2.88,10.8-2.88ZM411.54,34.13c0-.43-.14-.65-.65-.65h-9.07c-6.12,0-11.67,1.08-11.67,7.78,0,4.39,3.02,7.42,9.94,7.42,7.42,0,11.45-4.61,11.45-10.01v-4.54Z"/>
      <path class="cls-1" d="M335.28,2.12c-.18-.46-.69-.67-1.15-.5-.46.17-.7.69-.54,1.15.01.04.13.41-.15.8-.2.28-.8.81-2.54,1.09-2.38-2.71-5.85-4.43-9.73-4.43h-6.75c-3.88,0-7.36,1.72-9.73,4.43-1.73-.27-2.34-.81-2.54-1.09-.27-.38-.17-.74-.15-.8.17-.46-.06-.98-.51-1.16-.46-.18-.99.04-1.18.51-.05.13-.47,1.27.33,2.44.54.79,1.5,1.35,2.86,1.69-1.28,2.01-2.03,4.38-2.03,6.93v35.31c0,.52.22.99.57,1.33,0,0,0,0,0,0,.29.28.67.47,1.1.51.7.06,1.89.14,3.4.14,7.28,0,22.09-1.84,26.55-16.27.69-2.23,1.04-4.73,1.04-7.43v-13.59c0-2.55-.75-4.92-2.03-6.93,1.35-.34,2.32-.9,2.86-1.69.79-1.17.38-2.32.33-2.44h0ZM314.42,2.04h6.75c2.81,0,5.38,1.06,7.34,2.78h-.05c-5.19,0-9.02,2.67-10.67,7.11-1.65-4.44-5.48-7.11-10.67-7.11h-.05c1.96-1.73,4.53-2.78,7.34-2.78h0ZM315.13,26.88c.45,2.44,1.62,10.77-2.36,16.27-2.07,2.85-5.27,4.52-9.5,5.01v-4.6c2.36-.45,4.18-1.49,5.41-3.12,2.2-2.92,1.67-6.62,1.64-6.77-.08-.49-.54-.83-1.03-.76-.49.07-.84.54-.76,1.03,0,.03.44,3.12-1.31,5.42-.89,1.17-2.22,1.96-3.95,2.35v-21.21c2.26,3.81,6.4,6.38,11.14,6.38h.72ZM332.31,26.77c0,2.52-.32,4.85-.96,6.9-3.7,11.96-15.29,14.53-22.58,14.92,2.23-.99,4.07-2.44,5.47-4.37,4.27-5.89,3.28-14.31,2.74-17.34h4.18c4.74,0,8.88-2.57,11.14-6.38v6.27h0ZM332.31,13.18v.74c0,6.15-5,11.14-11.14,11.14h-6.75c-6.15,0-11.14-5-11.14-11.14v-.74c0-2.48.82-4.76,2.2-6.62.52.04,1.06.07,1.65.07,7.2,0,9.77,5.5,9.77,10.66,0,.5.41.91.91.91s.91-.41.91-.91c0-5.15,2.56-10.66,9.77-10.66.59,0,1.13-.03,1.65-.07,1.37,1.85,2.2,4.14,2.2,6.62h0Z"/>
      <path class="cls-1" d="M310.34,11.47c-1.46,0-2.65,1.19-2.65,2.65s1.19,2.65,2.65,2.65,2.65-1.19,2.65-2.65-1.19-2.65-2.65-2.65ZM310.34,14.95c-.46,0-.84-.37-.84-.84s.37-.84.84-.84.84.37.84.84-.37.84-.84.84Z"/>
      <path class="cls-1" d="M325.24,11.47c-1.46,0-2.65,1.19-2.65,2.65s1.19,2.65,2.65,2.65,2.65-1.19,2.65-2.65-1.19-2.65-2.65-2.65ZM325.24,14.95c-.46,0-.84-.37-.84-.84s.37-.84.84-.84.84.37.84.84-.37.84-.84.84Z"/>
    </g>
  </g>
</svg>